<svg width="150" height="32" viewBox="0 0 150 32" fill="none" xmlns="http://www.w3.org/2000/svg">
<path d="M10.066 16.8257C10.5793 16.8257 10.9953 16.4094 10.9953 15.8958C10.9953 15.3822 10.5793 14.9658 10.066 14.9658C9.55278 14.9658 9.13672 15.3822 9.13672 15.8958C9.13672 16.4094 9.55278 16.8257 10.066 16.8257Z" fill="#045EA8"/>
<path fill-rule="evenodd" clip-rule="evenodd" d="M8.00239 15.8959C8.00239 15.3276 8.26053 14.811 8.62193 14.3977C7.95076 13.2611 7.02145 12.4344 5.52423 12.3311H2.63304H0.464655C0.30977 12.7961 0.30977 12.9511 0.206513 13.5194C0.0516283 14.2944 0 15.0693 0 15.8959C0 16.7226 0.0516283 17.4975 0.206513 18.3242C0.30977 18.8925 0.361398 19.0475 0.464655 19.5124H2.63304H5.57586C7.02145 19.4091 7.95076 18.5308 8.67356 17.4459C8.26053 17.0326 8.00239 16.4643 8.00239 15.8959ZM30.7705 15.8959C30.7705 13.1061 29.9444 10.3679 28.6537 8.09465C21.8904 5.51143 13.4234 8.04298 11.7196 14.5527C12.0294 14.9143 12.1843 15.3793 12.1843 15.8959C12.1843 16.4126 11.9778 16.8776 11.7196 17.2392C13.4234 23.8006 21.942 26.3321 28.6537 23.6973C29.9961 21.424 30.7705 18.6858 30.7705 15.8959ZM15.3852 31.2919C9.03496 31.2919 3.04607 27.2104 0.980938 21.1657H2.63304H5.98889C8.20891 21.1657 9.2931 19.7191 10.0675 18.0142H10.1192H10.1708C10.2224 18.3242 10.3773 18.6858 10.5322 18.9958C13.8364 26.2288 21.529 27.0038 27.4146 25.6088C24.0588 29.4836 20.6513 31.0852 15.3852 31.2919ZM15.3852 0.5C20.6513 0.758321 24.0588 2.35991 27.363 6.23473C21.4774 4.78813 13.7848 5.61476 10.4806 12.8478C10.3773 13.1061 10.1708 13.5194 10.1192 13.8294H10.0675H10.0159C9.24147 12.0728 8.15728 10.6779 5.93726 10.6779H2.63304H0.980938C3.04607 4.58148 9.03496 0.5 15.3852 0.5Z" fill="#0A2135"/>
<path fill-rule="evenodd" clip-rule="evenodd" d="M45.6482 24.7311C49.0978 24.7311 51.9202 22.7698 53.4098 19.867L50.4306 18.2979C49.5682 20.1023 47.9218 21.5145 45.5698 21.5145C42.4338 21.5145 40.0818 19.004 40.0818 15.9443C40.0818 12.8061 42.4338 10.374 45.6482 10.374C47.8434 10.374 49.333 11.4724 50.2738 13.2768L53.1746 11.4724C51.685 8.88338 48.8626 7.23584 45.6482 7.23584C40.709 7.23584 36.7891 10.9232 36.7891 16.1012C36.8675 20.8084 40.317 24.7311 45.6482 24.7311ZM54.7426 24.4958H57.957V7.31429H54.7426V24.4958ZM65.5617 24.7311C68.9329 24.7311 71.6769 21.9852 71.6769 18.6117C71.6769 15.2382 68.9329 12.4923 65.5617 12.4923C62.1906 12.4923 59.4466 15.2382 59.4466 18.6117C59.4466 21.9852 62.1906 24.7311 65.5617 24.7311ZM65.5617 21.6714C63.9153 21.6714 62.5826 20.2592 62.5826 18.6117C62.5826 16.9642 63.8369 15.552 65.5617 15.552C67.2081 15.552 68.5409 16.9642 68.5409 18.6117C68.5409 20.3377 67.2081 21.6714 65.5617 21.6714ZM77.6353 24.7311C78.9681 24.7311 80.1441 24.1035 80.8497 23.162V24.4958H84.0641V12.7276H80.8497V19.1609C80.8497 21.1222 79.8305 21.9852 78.5761 21.9852C77.1649 21.9852 76.3809 21.0438 76.3809 19.4747V12.7276H73.0881V19.9454C73.1665 23.0051 74.8913 24.7311 77.6353 24.7311ZM91.2768 24.7311C92.8448 24.7311 94.0208 24.1035 94.8048 23.162V24.4958H98.0192V7.31429H94.8048V13.9044C94.0208 13.0415 92.8448 12.4923 91.2768 12.4923C88.6112 12.4923 85.5537 14.4536 85.5537 18.6117C85.6321 22.7698 88.768 24.7311 91.2768 24.7311ZM91.904 21.8283C90.1008 21.8283 88.768 20.4946 88.768 18.6117C88.768 16.8073 90.1008 15.4735 91.904 15.4735C93.6288 15.4735 94.8832 16.8857 94.8832 18.6117C94.9616 20.3377 93.6288 21.8283 91.904 21.8283ZM100.058 24.4958H110.25V21.3576H103.35V17.4349H110.25V14.2967H103.35V10.4525H110.25V7.31429H100.058V24.4958ZM111.269 24.4958H115.189L117.619 21.0438L120.128 24.4958H124.048L119.658 18.5332L123.734 12.7276H119.971L117.698 16.0227L115.424 12.7276H111.504L115.659 18.5332L111.269 24.4958ZM124.675 15.6304H126.713V19.3962C126.713 23.2405 127.968 24.4958 131.653 24.4958H132.123V21.5145C130.163 21.5145 129.928 21.2007 129.928 19.3962V15.6304H132.123V12.7276H129.928V8.17729L126.713 9.98174V12.7276H124.675V15.6304ZM139.257 24.7311C141.845 24.7311 143.726 23.3974 144.745 21.593L142.158 20.0239C141.609 21.1222 140.59 21.8283 139.257 21.8283C137.533 21.8283 136.513 20.9653 136.121 19.7101H145.216V18.5332C145.216 15.1597 142.707 12.4138 139.179 12.4138C135.808 12.4138 133.064 15.1597 133.064 18.5332C133.064 21.9068 135.573 24.7311 139.257 24.7311ZM139.179 15.3166C140.512 15.3166 141.531 15.9443 142.001 17.1995H136.278C136.827 16.1012 137.846 15.3166 139.179 15.3166ZM146.784 24.4958H149.998V7.31429H146.784V24.4958Z" fill="#045EA8"/>
</svg>
