<svg width="12" height="9" viewBox="0 0 12 9" fill="none" xmlns="http://www.w3.org/2000/svg">
<path d="M11.2749 1.36426L7.82422 4.79271L11.2749 8.22116C11.3373 8.09078 11.3751 7.94665 11.3751 7.79274V1.79268C11.3751 1.63875 11.3373 1.49464 11.2749 1.36426Z" fill="#1456A2"/>
<path d="M10.3766 0.791992H0.998738C0.844804 0.791992 0.700691 0.829837 0.570312 0.892215L4.98064 5.28032C5.3706 5.67028 6.00474 5.67028 6.3947 5.28032L10.805 0.892215C10.6746 0.829837 10.5305 0.791992 10.3766 0.791992Z" fill="#1456A2"/>
<path d="M0.100223 1.36426C0.0378448 1.49464 0 1.63875 0 1.79268V7.79274C0 7.94667 0.0378448 8.09081 0.100223 8.22116L3.5509 4.79271L0.100223 1.36426Z" fill="#1456A2"/>
<path d="M7.35435 5.26318L6.86606 5.75148C6.2163 6.40124 5.15902 6.40124 4.50926 5.75148L4.02099 5.26318L0.570312 8.69164C0.700691 8.75401 0.844804 8.79186 0.998738 8.79186H10.3766C10.5305 8.79186 10.6746 8.75401 10.805 8.69164L7.35435 5.26318Z" fill="#1456A2"/>
</svg>
