<svg width="16" height="17" viewBox="0 0 16 17" fill="none" xmlns="http://www.w3.org/2000/svg">
<path d="M3.40197 2.9585C2.5637 2.9585 2.01562 3.5042 2.01562 4.22145C2.01562 4.92286 2.54737 5.48413 3.3698 5.48413H3.38571C4.24037 5.48413 4.77226 4.92286 4.77226 4.22145C4.75628 3.5042 4.24037 2.9585 3.40197 2.9585Z" fill="#045EA8"/>
<path d="M2.16016 6.48193H4.61076V13.7911H2.16016V6.48193Z" fill="#045EA8"/>
<path d="M10.6279 6.31055C9.30591 6.31055 8.41943 7.5421 8.41943 7.5421V6.4821H5.96875V13.7913H8.41929V9.70956C8.41929 9.49104 8.43527 9.27287 8.50002 9.11661C8.67717 8.68027 9.08033 8.22822 9.75735 8.22822C10.6441 8.22822 10.9988 8.89851 10.9988 9.8811V13.7913H13.4492V9.60033C13.4492 7.35526 12.2401 6.31055 10.6279 6.31055Z" fill="#045EA8"/>
</svg>
