<svg width="10" height="11" viewBox="0 0 10 11" fill="none" xmlns="http://www.w3.org/2000/svg">
<path d="M9.67833 7.99143C9.651 7.96977 7.66667 6.53994 7.122 6.64257C6.862 6.68855 6.71333 6.86582 6.415 7.2207C6.367 7.27801 6.25167 7.4153 6.162 7.51293C5.97347 7.45146 5.78955 7.37663 5.61167 7.28901C4.69351 6.84217 3.95166 6.10058 3.50467 5.18274C3.41696 5.00495 3.3421 4.8211 3.28067 4.6326C3.37867 4.54264 3.516 4.42734 3.57467 4.37803C3.928 4.08146 4.10567 3.93285 4.15167 3.67227C4.246 3.13246 2.81667 1.13516 2.80167 1.11717C2.73682 1.02455 2.65218 0.947512 2.55389 0.891612C2.4556 0.835712 2.34611 0.802352 2.23333 0.793945C1.654 0.793945 0 2.93886 0 3.30007C0 3.32106 0.0303334 5.45498 2.66267 8.13171C5.33767 10.7601 7.472 10.7905 7.493 10.7905C7.85467 10.7905 10 9.13703 10 8.5579C9.99168 8.44556 9.95851 8.33647 9.90288 8.23851C9.84726 8.14054 9.77056 8.05615 9.67833 7.99143Z" fill="#1456A2"/>
</svg>
