<svg width="16" height="17" viewBox="0 0 16 17" fill="none" xmlns="http://www.w3.org/2000/svg">
<path d="M10.2119 5.83065C9.77915 3.82053 8.85614 2.54883 8.00246 2.54883C7.14877 2.54883 6.22576 3.82053 5.79297 5.83065H10.2119Z" fill="#045EA8"/>
<path d="M5.53906 8.29179C5.53896 8.84059 5.57555 9.38878 5.64859 9.9327H10.3523C10.4253 9.38878 10.4619 8.84059 10.4618 8.29179C10.4619 7.74299 10.4253 7.1948 10.3523 6.65088H5.64859C5.57555 7.1948 5.53896 7.74299 5.53906 8.29179Z" fill="#045EA8"/>
<path d="M5.79297 10.7534C6.22576 12.7635 7.14877 14.0352 8.00246 14.0352C8.85614 14.0352 9.77915 12.7635 10.2119 10.7534H5.79297Z" fill="#045EA8"/>
<path d="M11.0497 5.83062H13.6341C13.2458 4.94689 12.6558 4.16646 11.9114 3.55194C11.167 2.93742 10.2889 2.5059 9.34766 2.29199C10.1259 2.97666 10.7363 4.24263 11.0497 5.83062Z" fill="#045EA8"/>
<path d="M13.9286 6.65088H11.1801C11.2478 7.19523 11.2816 7.74325 11.2814 8.29179C11.2815 8.84034 11.2475 9.38836 11.1797 9.9327H13.9282C14.2274 8.85921 14.2278 7.72437 13.9286 6.65088Z" fill="#045EA8"/>
<path d="M9.34766 14.292C10.2891 14.0783 11.1673 13.6468 11.9119 13.0323C12.6564 12.4177 13.2465 11.6372 13.6349 10.7534H11.0505C10.7363 12.3414 10.1259 13.6074 9.34766 14.292Z" fill="#045EA8"/>
<path d="M4.95162 10.7534H2.36719C2.75559 11.6372 3.34573 12.4177 4.09028 13.0323C4.83483 13.6468 5.71305 14.0783 6.65448 14.292C5.87546 13.6074 5.26504 12.3414 4.95162 10.7534Z" fill="#045EA8"/>
<path d="M6.65448 2.29199C5.71305 2.50578 4.83483 2.93725 4.09028 3.55178C3.34573 4.16631 2.75559 4.94679 2.36719 5.83062H4.95162C5.26586 4.24263 5.87628 2.97666 6.65448 2.29199Z" fill="#045EA8"/>
<path d="M4.71882 8.29179C4.71877 7.74324 4.75275 7.19522 4.82056 6.65088H2.07203C1.77286 7.72437 1.77286 8.85921 2.07203 9.9327H4.82056C4.75275 9.38836 4.71877 8.84034 4.71882 8.29179Z" fill="#045EA8"/>
</svg>
