<svg width="16" height="16" viewBox="0 0 16 16" fill="none" xmlns="http://www.w3.org/2000/svg">
<path fill-rule="evenodd" clip-rule="evenodd" d="M4.4801 7.22148C4.29232 7.43624 4.15818 7.7047 4.15818 8C4.15818 8.2953 4.29232 8.5906 4.50693 8.80537C4.13135 9.36913 3.64847 9.8255 2.89731 9.87919H1.36818H0.241443C0.224244 9.80175 0.209802 9.74085 0.196349 9.68412C0.167834 9.56388 0.143763 9.46239 0.107308 9.26174C0.026827 8.83221 0 8.42953 0 8C0 7.57047 0.026827 7.16779 0.107308 6.7651C0.120721 6.69128 0.130781 6.63087 0.139584 6.57802C0.165992 6.41946 0.181082 6.32886 0.241443 6.14765H1.36818H2.87049C3.64847 6.20134 4.13135 6.63087 4.4801 7.22148ZM14.889 3.94631C15.5596 5.12752 15.9889 6.55034 15.9889 8C15.9889 9.44966 15.5865 10.8725 14.889 12.0537C11.4015 13.4228 6.97501 12.1074 6.08972 8.69799C6.22386 8.51007 6.33117 8.26846 6.33117 8C6.33117 7.73154 6.25068 7.48993 6.08972 7.30201C6.97501 3.91946 11.3746 2.60403 14.889 3.94631ZM0.509712 10.7383C1.58279 13.8792 4.69472 16 7.99444 16C10.7308 15.8926 12.5014 15.0604 14.2451 13.047C11.1868 13.7718 7.18963 13.3691 5.4727 9.61074C5.39222 9.44966 5.31174 9.26175 5.28491 9.10067H5.25809H5.23126C4.82886 9.98658 4.26549 10.7383 3.11193 10.7383H1.36818H0.509712ZM14.2183 2.97987C12.5014 0.966443 10.7308 0.134228 7.99444 0C4.69472 0 1.58279 2.12081 0.509712 5.28859H1.36818H3.0851C4.23866 5.28859 4.80203 6.01342 5.20443 6.92617H5.23126H5.25809C5.2783 6.80479 5.34422 6.65292 5.39844 6.528C5.41617 6.48715 5.43265 6.44918 5.44588 6.41611C7.1628 2.65772 11.16 2.22819 14.2183 2.97987ZM5.71416 8.00001C5.71416 8.26688 5.49796 8.48323 5.23127 8.48323C4.96458 8.48323 4.74839 8.26688 4.74839 8.00001C4.74839 7.73313 4.96458 7.51679 5.23127 7.51679C5.49796 7.51679 5.71416 7.73313 5.71416 8.00001Z" fill="white"/>
</svg>
